<svg xmlns="http://www.w3.org/2000/svg" data-name="Layer 1" viewBox="0 0 100 125" x="0px" y="0px"><path d="M45.6,32.61V30.744a1.368,1.368,0,0,1,2.735,0V32.61a1.368,1.368,0,0,1-2.735,0ZM30.542,29.377a1.367,1.367,0,0,0-1.367,1.367V32.61a1.368,1.368,0,0,0,2.735,0V30.744A1.368,1.368,0,0,0,30.542,29.377ZM44.475,42.1a1.367,1.367,0,0,0-1.767-2.087c-2.688,2.274-5.2,2.273-7.915,0a1.367,1.367,0,1,0-1.758,2.095,8.919,8.919,0,0,0,5.728,2.364A8.844,8.844,0,0,0,44.475,42.1ZM92.85,69.14V93.677a1.368,1.368,0,0,1-1.917,1.253c-5.954-2.61-11.36-2.62-16.527-.03a1.37,1.37,0,0,1-1.226,0A17.6,17.6,0,0,0,66.258,93v5.637A1.367,1.367,0,0,1,64.89,100H12.776a1.367,1.367,0,0,1-1.368-1.368V73.685a16.19,16.19,0,0,1,8.479-13.962,17.985,17.985,0,0,1,5.178-2.048,20.643,20.643,0,0,1,4.353-.519V55.487H8.518a1.368,1.368,0,0,1-1.247-1.929c2.813-6.254,4.052-13.719,5.251-20.939,1.385-8.349,2.694-16.234,6.262-22.293C22.874,3.378,29.437,0,38.847,0S54.8,3.38,58.886,10.333c3.564,6.062,4.874,13.948,6.261,22.3,1.2,7.219,2.439,14.683,5.248,20.928a1.368,1.368,0,0,1-1.247,1.929H48.087v1.666a20.646,20.646,0,0,1,4.516.518,18.158,18.158,0,0,1,5.168,2.045l.02.012.013.008a17.532,17.532,0,0,1,6.2,6.01,20.026,20.026,0,0,1,9.789,1.875c5.68-2.639,11.812-2.55,18.238.266A1.369,1.369,0,0,1,92.85,69.14Zm-35.378.909V91.663a23.09,23.09,0,0,1,7.778-1.417,19.917,19.917,0,0,1,7.176,1.336V70C67.735,67.886,62.827,67.9,57.472,70.049ZM38.753,49.535a16.021,16.021,0,0,0,16-16.006V28.1C49.4,27.585,46.08,25.475,43.129,23.6c-2.483-1.58-4.627-2.944-7.618-3.1-3.3-.178-7.373,1.118-12.759,4.068v8.967A16.021,16.021,0,0,0,38.753,49.535Zm-9.335,3.216V49.774a18.755,18.755,0,0,1-9.4-16.245V23.757a1.368,1.368,0,0,1,.7-1.192c6.206-3.489,10.954-5.014,14.942-4.8,3.707.2,6.249,1.815,8.94,3.527,3.036,1.932,6.176,3.93,11.585,4.174a1.367,1.367,0,0,1,1.306,1.366v6.7a18.755,18.755,0,0,1-9.4,16.245v2.977h19C64.7,46.64,63.558,39.757,62.449,33.078c-2.7-16.281-5.041-30.343-23.6-30.343-18.592,0-20.926,14.056-23.627,30.331-1.109,6.681-2.253,13.567-4.646,19.685ZM22.64,61.37l5.652,7.47H49.368l5.653-7.472a14.706,14.706,0,0,0-3.028-1.031,21.46,21.46,0,0,0-5.273-.46,1.367,1.367,0,0,1-1.368-1.367V51.068a18.718,18.718,0,0,1-13.2,0V58.51a1.367,1.367,0,0,1-1.367,1.367,20.973,20.973,0,0,0-5.1.462l-.019,0A14.621,14.621,0,0,0,22.64,61.37Zm7.722,10.206L38.83,82.768,47.3,71.576ZM63.523,97.265V93.051a22.565,22.565,0,0,0-6.87,1.879,1.367,1.367,0,0,1-1.916-1.253V69.14a1.366,1.366,0,0,1,.819-1.253,26.665,26.665,0,0,1,5.425-1.743,14.84,14.84,0,0,0-3.559-3.415L39.921,85.86a1.368,1.368,0,0,1-2.181,0L20.24,62.731a13.3,13.3,0,0,0-6.1,10.954v23.58ZM90.115,70.048C84.763,67.9,79.855,67.886,75.161,70V91.582a21.012,21.012,0,0,1,14.954.081Z"/><text x="0" y="115" fill="#000000" font-size="5px" font-weight="bold" font-family="'Helvetica Neue', Helvetica, Arial-Unicode, Arial, Sans-serif">Created by Awicon</text><text x="0" y="120" fill="#000000" font-size="5px" font-weight="bold" font-family="'Helvetica Neue', Helvetica, Arial-Unicode, Arial, Sans-serif">from the Noun Project</text></svg>