<svg xmlns="http://www.w3.org/2000/svg" viewBox="0 0 64 80" x="0px" y="0px"><g><path d="M51.82,53.31A20.34,20.34,0,0,0,37.05,37.9a10.65,10.65,0,0,0,5.57-9.35A10.37,10.37,0,0,0,42,25V18.09l6.83-2.22a2.41,2.41,0,0,0,0-4.59L33.2,6.19a3.93,3.93,0,0,0-2.4,0L15.17,11.28a2.41,2.41,0,0,0,0,4.59l1.33.43v-.51l0-.14a2.61,2.61,0,0,1,.08-.33,1.66,1.66,0,0,1,.15-.33,1.3,1.3,0,0,1,.21-.31l.18-.19L15.76,14a.47.47,0,0,1-.33-.46.45.45,0,0,1,.33-.46L31.4,8a2,2,0,0,1,1.2,0l15.64,5.1a.45.45,0,0,1,.33.46.47.47,0,0,1-.33.46L32.6,19.13a1.85,1.85,0,0,1-1.2,0l-6.93-2.25-.64.11L22,17.3l-1.59.28,1.58.51V25a10.37,10.37,0,0,0-.62,3.53A10.65,10.65,0,0,0,27,37.9,20.34,20.34,0,0,0,12.18,53.31,3.83,3.83,0,0,0,13,56.53,3.93,3.93,0,0,0,16,58H48A3.93,3.93,0,0,0,51,56.53,3.83,3.83,0,0,0,51.82,53.31ZM30.8,21a3.7,3.7,0,0,0,2.4,0l6.87-2.24v5.9H23.93v-5.9Zm-7.49,7.59a8.5,8.5,0,0,1,.24-2h16.9a8.5,8.5,0,0,1,.24,2,8.7,8.7,0,0,1-8.62,8.7h-.14A8.7,8.7,0,0,1,23.31,28.55ZM49.54,55.32a2,2,0,0,1-1.58.75H16a2,2,0,0,1-1.58-.75,1.92,1.92,0,0,1-.39-1.61A18.38,18.38,0,0,1,31.94,39.18h.12A18.38,18.38,0,0,1,49.93,53.71,1.92,1.92,0,0,1,49.54,55.32Zm-32-31.91V15.93a.3.3,0,0,1,0-.1,1.42,1.42,0,0,1,0-.2,1.11,1.11,0,0,1,.07-.16l.1-.15a1.59,1.59,0,0,1,.13-.13l.15-.1.18-.07.11,0,.23,0,13.31-2.31a1,1,0,1,1,.32,1.9l-9.72,1.69-3,.52v6.67a1,1,0,1,1-1.92,0Zm0,4.45a1,1,0,0,1,1.92,0v3.83a1,1,0,0,1-1.92,0Z"/></g><text x="0" y="79" fill="#000000" font-size="5px" font-weight="bold" font-family="'Helvetica Neue', Helvetica, Arial-Unicode, Arial, Sans-serif">Created by IconInnovate</text><text x="0" y="84" fill="#000000" font-size="5px" font-weight="bold" font-family="'Helvetica Neue', Helvetica, Arial-Unicode, Arial, Sans-serif">from the Noun Project</text></svg>