<svg xmlns="http://www.w3.org/2000/svg" version="1.1" viewBox="-5.0 -10.0 110.0 135.0">
 <path d="m25.051 2.9297m3.7891 1.6055c0.089844 0.011719 0.17188 0.011719 0.25 0.011719h0.18359c0.082031 0.039063 0.16016 0.082031 0.23047 0.12109-0.007812 0.089843-0.007812 0.19141-0.007812 0.28125 0 0.45312 0 1.6562 0.98828 2.6445 0.64453 0.64453 1.3945 0.86719 1.9492 0.94922 0.34375 0.27344 0.66797 0.43359 0.85938 0.52344 0.070312 0.039063 0.15234 0.070313 0.23047 0.10156 0.6875 0.27344 1.3242 0.41406 1.8594 0.52344l0.12109 0.039063c0.3125 0.10156 0.63672 0.15234 0.96094 0.15234h0.24219c0.19141 0.019532 0.375 0.039063 0.56641 0.039063 0.96094 0 1.8984-0.32422 2.6953-0.92969 0 0 0.050781-0.019532 0.15234-0.050782-0.24219 0.22266-0.50391 0.51562-0.74609 0.89844-0.20312 0.0625-0.41406 0.14062-0.64453 0.26172-0.76953 0.38281-1.332 1.0703-1.5547 1.8789-0.47656 0.80859-0.55469 1.8086-0.19141 2.6953 0.050781 0.12109 0.10938 0.24219 0.17188 0.35547-0.10938 0.082031-0.22266 0.18359-0.32422 0.28125l-0.20312 0.20312c-0.6875 0.6875-1 1.668-0.84766 2.625 0.019531 0.10938 0.039062 0.22266 0.070312 0.33203 0.039063 0.49609 0.17188 1.0898 0.51563 1.6875 0 0.35547 0.070312 0.70703 0.18359 1.0391 0.019531 0.32422 0.089844 0.64453 0.22266 0.94922 0.38281 0.9375 1.2109 1.6055 2.1836 1.8086 0.10938 0.17188 0.24219 0.34375 0.39453 0.48438 0.65625 0.65625 1.3242 0.91797 1.8906 1.0312 0.019531 0.019532 0.039062 0.03125 0.070312 0.050782 0.089844 0.13281 0.18359 0.25391 0.29297 0.36328-0.050781 0.12109-0.10156 0.25391-0.13281 0.375-0.019531 0.019531-0.03125 0.050781-0.050781 0.070312-0.28125 0.45312-0.43359 0.96875-0.47656 1.4844-0.34766 0.59766-0.54297 1.2148-0.54297 1.8789 0 1.1523 0.65625 2.1914 1.6445 2.6953l0.15234 0.15234c0.41406 0.41406 0.84766 0.625 1.1523 0.74609 0.14063 0.070313 0.29297 0.14063 0.44531 0.19141 0.082031 0.03125 0.16016 0.0625 0.23047 0.089843 0.38281 0.55469 0.94922 0.98047 1.5977 1.2031 0.082031 0.070312 0.18359 0.14062 0.29297 0.21094 0.089843 0.070313 0.18359 0.13281 0.26172 0.18359 0.17187 0.14062 0.36328 0.26172 0.56641 0.36328 0.52344 0.26172 1.0312 0.39453 1.5547 0.39453 0.32422 0.17188 0.70703 0.3125 1.1602 0.38281 0.28125 0.18359 0.58594 0.32422 0.89844 0.41406 0.03125 0.019532 0.0625 0.039063 0.089844 0.050782 0.65625 0.41406 1.3047 0.48437 1.6875 0.48437 0.21094 0 0.42578-0.019531 0.61719-0.0625 0.32422 0.089844 0.65625 0.14063 0.98047 0.14063 0.20312 0 0.40234-0.019532 0.59766-0.050782 0.36328 0.56641 0.91016 1 1.5469 1.2227 0.63672 0.54688 1.4258 0.83984 2.2539 0.83984 0.54688 0.47656 1.2539 0.73828 1.9883 0.73828h0.10156c0.27344 0 0.53516-0.039063 0.78906-0.10156 0.0625 0.019531 0.13281 0.03125 0.21094 0.050781 0.0625 0.019532 0.14062 0.039063 0.22266 0.0625 0.3125 0.089844 0.63672 0.14062 0.96875 0.14062 0.25391 0 0.48438-0.03125 0.6875-0.070312 0.3125 0.13281 0.64453 0.20312 0.98047 0.22266h0.16016c0.089843 0.18359 0.19141 0.36328 0.3125 0.51562-0.39453 0.55469-0.61719 1.2305-0.61719 1.9102 0 0.80859 0.32422 1.5742 0.89062 2.1406l0.089844 0.089844c0.14062 0.17188 0.38281 0.47656 0.76953 0.74609 0.011719 0.011719 0.03125 0.019531 0.039062 0.03125-0.0625 0.71875 0.13281 1.3242 0.35547 1.7695 0.039063 0.089844 0.089844 0.17188 0.14062 0.25391 0.070313 0.34375 0.20312 0.6875 0.39453 0.98828 0.070312 0.12109 0.16016 0.24219 0.25391 0.34375 0.0625 0.22266 0.15234 0.45312 0.25391 0.67578 0.03125 0.070312 0.039062 0.12109 0.0625 0.16016v0.16016c-0.10156-0.011719-0.20312-0.019531-0.30469-0.019531h-0.40234c-0.20312 0-0.39453 0.019531-0.59766 0.0625-0.16016 0.03125-0.30469 0.039062-0.44531 0.0625-0.21094 0.019531-0.47656 0.050781-0.76953 0.10156-1.0703 0.12109-1.9688 0.70703-2.4844 1.5547-0.13281 0.089844-0.26172 0.20312-0.375 0.32422-0.27344 0.27344-1.0898 1.0898-1.0898 2.4453 0 0.17188 0 0.48438 0.082031 0.86719-0.14062 0.21094-0.25391 0.43359-0.34375 0.66797-0.0625 0.0625-0.12109 0.13281-0.18359 0.21094-0.41406 0.089844-0.76953 0.18359-1.0898 0.26172-0.14062 0.03125-0.27344 0.082031-0.40234 0.13281-0.21094 0.0625-0.61719 0.19141-1.0312 0.47656-0.79688 0.47656-1.5742 1.082-2.293 1.8086-0.78906 0.78906-1.332 1.6055-1.668 2.4844-0.13281 0.15234-0.25391 0.32422-0.35547 0.49609-0.019532 0.03125-0.039063 0.070313-0.0625 0.10156l-0.19141 0.19141c-1.3828 0.40234-2.4336 1.2617-3.1406 2.5547-0.64453 0.20312-1.2422 0.51562-1.7461 0.9375-0.19141 0.10937-0.40234 0.27344-0.61719 0.49609l-0.10156 0.10156c-0.13281 0.13281-0.44531 0.44531-0.69531 0.9375-0.10938 0.23047-0.20312 0.46484-0.25391 0.70703-0.082031-0.011719-0.16016-0.011719-0.24219-0.011719h-0.20312c-1.1719 0-2.1836 0.66797-2.6875 1.6367-0.75781 0.082031-1.293 0.38281-1.4961 0.50391-0.011719 0-0.011719 0.011719-0.019532 0.011719-0.17187 0.050781-0.33203 0.10938-0.48437 0.19141-0.69531 0.35547-1.8789 1.2227-1.8789 3.1094v0.12109c-0.48438 1.2109-0.12109 2.2617 0.019531 2.6758l0.03125 0.082032c0.011719 0.039062 0.03125 0.10156 0.050782 0.15234-0.29297 0.96875-0.18359 1.7773 0.050781 2.3945-0.089844 0.60547-0.03125 1.2305 0.18359 1.8672l0.011719 0.03125c-0.25391 0.67578-0.25391 1.2617-0.25391 1.4766v0.070313c-0.082031 0.14062-0.16016 0.29297-0.25391 0.43359-0.18359 0.33203-0.36328 0.64453-0.55469 0.9375-0.03125 0.039062-0.050782 0.082031-0.082032 0.12109-0.96094 1.6055-0.82812 2.9492-0.47656 3.8789v0.019531c-0.039063 0.19141-0.0625 0.39453-0.0625 0.59766v0.20312c-0.66797 0.41406-1.1602 1.0508-1.3828 1.8086-0.0625 0.10156-0.17188 0.25391-0.28125 0.39453-0.33203 0.30469-0.59766 0.65625-0.78906 1.0391-1.4336 0.15234-2.5742 1.0625-3.0391 2.4531-0.039062 0.13281-0.082031 0.26172-0.10156 0.39453-0.019532 0.050781-0.039063 0.10938-0.0625 0.17188-0.011719-0.019531-0.019532-0.050781-0.019532-0.070312-0.03125-0.089844-0.050781-0.17188-0.089843-0.25391-0.070313-0.17188-0.14062-0.56641-0.20312-0.84766l-0.050782-0.23047c-0.019531-0.12109-0.039062-0.20312-0.082031-0.32422l-0.019531-0.082032c-0.011719-0.070312-0.03125-0.16016-0.050781-0.26172-0.019531-0.3125-0.082031-0.70703-0.24219-1.1328v-0.019531c-0.03125-0.15234-0.070312-0.375-0.16016-0.64453-0.03125-0.32422-0.089844-0.57422-0.14062-0.76953-0.03125-0.14062-0.070312-0.28125-0.10938-0.41406-0.039063-0.22266-0.12109-0.56641-0.30469-0.96094-0.03125-0.089843-0.082032-0.22266-0.15234-0.38281-0.050782-0.14062-0.10156-0.27344-0.15234-0.39453-0.03125-0.070313-0.0625-0.15234-0.089844-0.23047-0.019531-0.0625-0.039062-0.10938-0.0625-0.17188-0.20312-0.50391-0.42578-1.0625-0.75781-1.668-0.011719-0.019531-0.019532-0.050781-0.03125-0.070313-0.019532-0.050781-0.03125-0.089843-0.050782-0.13281-0.12109-0.91016-0.54687-1.6953-1.2031-2.2617-0.375-0.81641-0.73828-1.5469-1.1016-2.2617-0.10938-0.22266-0.18359-0.50391-0.18359-1.1719 0-1.0898-0.21094-2.0703-0.63672-3-0.011718-0.039063-0.011718-0.089844-0.019531-0.13281-0.03125-0.20312-0.070312-0.45312-0.14062-0.73828-0.18359-0.73828-0.48438-1.5977-1.3047-2.4141-0.050781-0.050781-0.10938-0.10938-0.17188-0.16016-0.019532-0.019531-0.12109-0.16016-0.16016-0.46484-0.019532-0.3125-0.082032-0.57422-0.14063-0.78906 0-0.019531-0.011718-0.03125-0.011718-0.050781 0-0.6875-0.23047-1.4961-0.96875-2.3125v-0.019532c-0.0625-0.47656-0.14062-0.94922-0.22266-1.4141-0.0625-0.3125-0.10938-0.63672-0.15234-0.9375v-1.3125c0-0.63672-0.10938-1.2031-0.22266-1.6562-0.011719-0.082032-0.019532-0.16016-0.039063-0.24219-0.082031-0.41406-0.14062-0.71875-0.14062-1.0195 0-0.44531-0.0625-0.84766-0.18359-1.2227 0.050782-0.22266 0.082032-0.45312 0.082032-0.69531v-0.10156c0-0.47656-0.10938-0.92969-0.3125-1.332-0.011719-0.56641-0.0625-1.2031-0.18359-1.8477 0.21094-0.53516 0.34375-0.98828 0.44531-1.4531 0.16016-0.42578 0.25391-0.89844 0.25391-1.4141 0-0.50391 0-1.293-0.40234-2.1523 0.10156-0.375 0.13281-0.75781 0.082031-1.1523-0.039062-0.33203-0.14062-0.65625-0.28125-0.94922l0.003906-0.054687v-0.50391c0-1.3047-0.83984-2.4648-2.0703-2.8789l-0.30469-0.10156c-0.32031-0.10156-0.64453-0.14844-0.96875-0.14844-0.74609 0-1.4961 0.28125-2.0625 0.80859-0.45312 0.42578-0.75781 0.96875-0.89844 1.5547-0.375 0.51562-0.57422 1.1406-0.57422 1.7891v0.10156c0 0.070312 0 0.14062 0.011719 0.20312-0.15234 0.050781-0.29297 0.10938-0.42578 0.16016-0.070313 0.03125-0.15234 0.0625-0.23047 0.089844-0.15234 0.050781-0.30469 0.10938-0.44531 0.18359-0.050781 0.019531-0.10938 0.039062-0.17188 0.070312l-0.011719-0.011719c-0.10937-0.15234-0.22266-0.27344-0.3125-0.36328-0.03125-0.039062-0.0625-0.070312-0.082031-0.10938l-0.50391-0.625c0.050781-0.039063 0.10938-0.082031 0.16016-0.12109 0.70703-0.18359 1.2031-0.55469 1.5234-0.87891 0.6875-0.6875 1-1.668 0.84766-2.625-0.089844-0.55469-0.32422-1.0625-0.67578-1.4766 0.03125-0.011718 0.070312-0.011718 0.10156-0.019531 1.918-0.38281 2.9375-1.625 2.9375-3.5742 0-0.14062-0.011718-0.28125-0.03125-0.42578-0.10938-0.76953-0.24219-1.5742-0.52344-2.4453-0.019531-0.0625-0.039063-0.12109-0.050781-0.16016 0-1.2422-0.61719-2.3125-1.5547-2.9102 0.03125-0.16016 0.039062-0.33203 0.039062-0.51562 0-0.53516-0.13281-1.0391-0.375-1.4844 0.12109-0.011718 0.23047-0.019531 0.35547-0.03125 0.35547-0.011718 0.70703-0.082031 1.0391-0.21094 0.14844-0.074219 0.26953-0.10547 0.5-0.10547 1.6367 0 3.0625-0.79688 4.0391-2.2617 0.13281-0.20312 0.24219-0.41406 0.32422-0.64453 0.03125-0.050781 0.050781-0.10156 0.082031-0.14062 0.03125-0.050781 0.0625-0.10938 0.089844-0.16016 0.19141-0.089844 0.34375-0.18359 0.45312-0.25391 0.85938-0.34375 2-1.1094 2.6758-2.7891 0.019532-0.050781 0.039063-0.10938 0.0625-0.17188l0.10156-0.30469c1.0312-0.34375 1.8281-1.2305 2.0195-2.332 0.070312-0.38281 0.57422-0.98047 0.84766-1.3047l0.23047-0.23047c0.14062-0.14062 0.27344-0.29297 0.375-0.46484l0.60547-0.91016c0.32422-0.47656 0.49609-0.9375 0.57422-1.3633 0.0625-0.019531 0.12109-0.039063 0.17188-0.070313 0.81641-0.27344 1.5039-0.89062 1.8477-1.7188 0.46484-1.1328 0.21094-2.4336-0.65625-3.3047-0.51562-0.51562-1.0703-0.81641-1.5977-0.98828-0.12109-0.16016-0.26172-0.30469-0.41406-0.43359-0.089844-0.20312-0.20312-0.39453-0.33203-0.56641v-1.6172c0-0.35547 0-1.0703-0.3125-1.8164 0.011718-0.050782 0.03125-0.10156 0.039062-0.15234 0.039063-0.14062 0.10156-0.33203 0.13281-0.57422 0.03125-0.10156 0.050781-0.21094 0.082031-0.33203 0.21094-0.84766 0.089844-1.7383-0.375-2.4844-0.42578-0.6875-1.082-1.1719-1.8398-1.3828-0.082031-0.03125-0.18359-0.070312-0.29297-0.10156-0.03125-0.011719-0.0625-0.019531-0.10156-0.039062-0.125-0.13672-0.28516-0.26953-0.45703-0.37891h0.81641c0.32422 0 0.64453-0.050781 0.96094-0.15234l0.0625-0.019532c0.19141-0.070312 0.49219-0.16016 0.84766-0.34375m13.344 3.7578m-12.891 0.49609m1.4141 12.051m10.402 2.8281m49.758 4.918m-3.8984 0.16016m-0.84766 1.1836c0.089844 0.039062 0.19141 0.082031 0.29297 0.10937 0.25391 0.082032 0.66797 0.22266 1.2109 0.22266 0.15234 0 0.36328-0.011719 0.61719-0.0625 0.082031 0.18359 0.17187 0.35547 0.29297 0.51562-0.76953 0.40234-1.2422 0.94922-1.5352 1.5039-0.28125 0.17188-0.49609 0.34375-0.64453 0.48438-0.23047 0.17188-0.45312 0.38281-0.66797 0.65625l-0.14062 0.14062c-0.98828 0.98828-0.98828 2.1602-0.98828 2.5469v0.10156c0 0.26172 0.039062 0.53516 0.10156 0.78906-0.019531 0.039062-0.039062 0.082031-0.0625 0.12109-0.81641 0.54688-1.332 1.4531-1.3555 2.4531-0.0625 0.45312-0.17188 0.96875-0.30469 1.5039-0.039062 0.17188-0.082031 0.33203-0.10938 0.50391-0.17188 0.019531-0.34375 0.039063-0.50391 0.089844 0.039062-0.41406 0-0.84766-0.14062-1.2617-0.41406-1.2422-1.5664-2.0703-2.8789-2.0703h-0.20313c-0.18359 0-0.375 0.019531-0.55469 0.050781-0.019531 0-0.039063-0.011719-0.0625-0.011719 0.18359-0.050781 0.36328-0.12109 0.55469-0.21094 0.13281-0.039063 0.34375-0.12109 0.60547-0.25391 0.77734-0.38281 1.3555-1.0898 1.5742-1.9297 0.14062-0.51562 0.13281-1.0625 0-1.5664v-0.011719c0.81641-0.41406 1.4531-1.1406 1.7695-2.082 0.011719-0.019531 0.011719-0.039063 0.019531-0.070313 0.27344-0.26172 0.47656-0.53516 0.63672-0.76953 0.011719 0 0.019531 0 0.03125-0.011719 1-0.23828 1.8477-0.75391 2.4453-1.4805m-2.1016 0.81641m-61.191 0.10156m-0.42578 0.10156m70.75 0.18359m-38 3.1094m4.7461 4.6562m-48.281 4.4844m2.4453 7.4453m15.816-49.555c-0.0625 0-0.12109 0.011718-0.18359 0.039062-0.10156 0-0.10156 0-0.20312 0.10156-0.10156 0-0.10156 0.10156-0.20313 0.10156h-0.20312c-0.19141-0.12109-0.45313-0.21094-0.69531-0.21094-0.15234 0-0.29297 0.03125-0.41406 0.10937-0.30469 0.40234-0.70703 0.50391-1.0117 0.60547h-1.2109-0.60547-0.10156c-0.40234 0-0.91016 0-1.3125 0.30469h-0.20312-0.10156-0.30469-0.20312c-0.40234 0-0.70703 0.20312-0.91016 0.60547 0 0.10156-0.10156 0.20312-0.20312 0.30469-0.50391 0.30469-0.70703 0.70703-0.70703 1.2109 0 0.50391 0.30469 0.91016 0.80859 1.2109 0.10156 0 0.20312 0.10156 0.20312 0.10156 0.10156 0 0.30469 0.10156 0.40234 0.20313 0.50391 0.30469 1.0117 0.60547 1.3125 1.1094 0.10156 0.10156 0.20312 0.20313 0.30469 0.30469 0 0 0.10156 0 0.10156 0.10156 0 0 0.10156 0.10156 0.20312 0.10156 0 0 0.10156 0 0.10156 0.10156 0.20313 0.30469 0.50391 0.50391 1.0117 0.60547 0.10156 0 0.20312 0.10156 0.30469 0.10156 0.10156 0 0.20312 0.10156 0.30469 0.10156 0.10156 0 0.20312 0.10156 0.10156 0.30469 0 0.20312-0.10156 0.30469-0.10156 0.50391 0 0.10156-0.10156 0.30469-0.10156 0.40234-0.20312 0.70703-0.20312 1.3125 0.10156 1.918 0.10156 0.19922 0.10156 0.50391 0.10156 0.70703v0.20312 1.5156 0.097656c0 0.20312 0 0.40234-0.20312 0.50391-0.10156 0.10156-0.20312 0.30469-0.10156 0.40234 0.10156 0.20312 0.30469 0.60547 0.80859 0.70703h0.10156v0.10156c-0.10156 0.30469 0.10156 0.60547 0.30469 0.70703 0.10156 0.10156 0.30469 0.10156 0.40234 0.20312 0 0 0.10156 0 0.10156 0.10156v0.10156 0.40234c0 0.10156 0 0.20312 0.10156 0.30469 0.10156 0.10156 0.20312 0.10156 0.30469 0.10156h0.40234 0.30469c0.30469 0 0.50391 0.10156 0.70703 0.30469-0.10156 0-0.20312 0.10156-0.30469 0.10156-0.30469 0.10156-0.60547 0.30469-1.0117 0.50391-0.50391 0.20312-0.91016 0.50391-1.2109 0.70703-0.20312 0.10156-0.20312 0.20312-0.20312 0.30469 0 0.10156 0 0.20312 0.20312 0.30469 0.40234 0.20312 0.40234 0.40234 0.20312 0.70703-0.20312 0.30469-0.40234 0.60547-0.60547 0.91016l-0.30469 0.30469c-0.70703 0.80859-1.4141 1.7188-1.6172 2.8281-0.91016 0.10156-1.3125 0.50391-1.7188 1.3125-0.10156 0.30469-0.20312 0.60547-0.30469 0.91016-0.20312 0.50391-0.50391 0.91016-1.0117 1.1094-0.30469 0.10156-0.50391 0.30469-0.80859 0.40234-0.50391 0.30469-0.91016 0.70703-1.1094 1.1094-0.10156 0.20312-0.30469 0.50391-0.40234 0.80859-0.40234 0.60547-0.91016 0.91016-1.5156 0.91016-0.60547 0-1.1094 0.10156-1.6172 0.30469h-0.20312c-0.10156 0.03125-0.18359 0.039062-0.25391 0.039062-0.21094 0-0.30469-0.10938-0.45312-0.34375v-0.10156c-0.10156-0.10156-0.10156-0.20312-0.20312-0.30469-0.15234-0.22266-0.36328-0.34375-0.625-0.34375-0.089844 0-0.18359 0.011719-0.28125 0.039063-0.10156 0-0.30469 0.10156-0.30469 0.30469 0 0.10156-0.10156 0.20312-0.10156 0.20312-0.50391 0.20312-0.60547 0.60547-0.70703 1.0117-0.10156 0.40234-0.20313 0.60547-0.60547 0.70703-0.60547 0.20312-0.91016 0.70703-1.0117 1.3125-0.10156 0.50391-0.10156 0.91016 0.20312 1.2109 0.20312 0.30469 0.60547 0.50391 1.1094 0.60547h0.10156c0.10156 0 0.20313 0 0.30469 0.10156 0 0 0.10156 0 0.10156 0.10156 0 0.10156-0.10156 0.20313-0.10156 0.30469-0.10156 0.30469-0.20312 0.60547-0.20312 1.0117-0.10156 0.80859 0.20312 1.4141 1.1094 1.6172l0.10938-0.007812c0.10156 0 0.20312 0 0.30469 0.10156 0.20313 0 0.30469 0.20312 0.30469 0.40234v0.10156c0 0.30469 0.10156 0.70703 0.20312 1.0117 0.20312 0.60547 0.30469 1.2109 0.40234 1.918 0 0.50391 0 0.50391-0.50391 0.60547 0 0-0.10156 0-0.10156-0.10156-0.20312-0.30469-0.40234-0.40234-0.70703-0.40234-0.60547 0-1.1094 0.10156-1.5156 0.40234-0.10156 0.10156-0.20312 0.15234-0.3125 0.15234s-0.24219-0.050781-0.39453-0.15234c-0.80859-0.40234-1.6172-0.50391-2.3242-0.60547-0.40234 0-0.60547 0-0.70703 0.20312-0.20312 0.20313-0.20312 0.40234-0.20312 0.80859v0.20312h-0.10156-0.10156-0.20312c-0.50391 0-1.0117 0.30469-1.1094 0.80859-0.10156 0.40234 0 0.91016 0.40234 1.2109 0.10156 0 0.10156 0.10156 0.10156 0.20313 0.10156 0.70703 0.60547 1.0117 1.0117 1.2109 0.20312 0.10156 0.40234 0.20312 0.60547 0.40234 0.10156 0.10156 0.20312 0.10156 0.30469 0.20312 0.10156 0.10156 0.30469 0.20312 0.40234 0.20312 0.20312 0.10156 0.40234 0.30469 0.70703 0.40234 0.20312 0.10156 0.38281 0.15234 0.55469 0.15234s0.35547-0.050781 0.55859-0.15234c0.20312-0.10156 0.30469-0.10156 0.50391-0.20312 0.15234-0.050782 0.30469-0.082032 0.44531-0.082032s0.26172 0.03125 0.36328 0.082032c-0.10156 0.10156-0.20312 0.10156-0.30469 0.10156-0.30469 0-0.60547 0.20312-0.80859 0.40234-0.20312 0.20312-0.40234 0.30469-0.70703 0.40234h-0.20313c-0.30469 0-0.60547 0.10156-0.91016 0.20312-0.070312 0.039063-0.12109 0.0625-0.16016 0.0625-0.070312 0-0.10938-0.070312-0.24219-0.26172-0.15234-0.23047-0.30469-0.34375-0.53516-0.34375-0.082031 0-0.17188 0.011718-0.27344 0.039062-0.30469 0.10156-0.40234 0.30469-0.40234 0.70703 0 0.40234 0.20312 0.80859 0.50391 1.1094 0.10156 0.10547 0.10156 0.10547 0.20312 0.20703 0.10156 0.10156 0.20312 0.20312 0.30469 0.30469 0.50391 0.60547 0.91016 1.2109 1.3125 1.7188l0.80859 1.0117c0.10156 0.20312 0.30469 0.30469 0.40234 0.50391 0.69531 0.76953 1.4336 1.1406 2.293 1.1406 0.39453 0 0.79688-0.082031 1.2422-0.23047 0.10156-0.10156 0.30469-0.10156 0.40234-0.20312 0.30469-0.10156 0.50391-0.20313 0.80859-0.30469 0.50391-0.10156 0.91016-0.30469 1.3125-0.50391 0.10156-0.10156 0.20312-0.10156 0.40234-0.20312 0.20312-0.10156 0.40234-0.30469 0.40234-0.60547v-0.20312-0.50391c0.10156-0.40234 0-0.70703-0.20312-1.0117v-0.10156l0.10156-0.10156c0.40234-0.20312 0.50391-0.60547 0.40234-1.0117l0.30469 0.10156v0.10156 0.40234 0.20312c-0.20312 0.70703-0.20312 0.91016 0.30469 1.2109-0.40234 0.40234-0.50391 0.70703-0.20312 1.3125 0.10156 0.20312 0.20312 0.40234 0.30469 0.60547 0.20312 0.30469 0.20312 0.60547 0.20312 1.0117 0 0.10156 0 0.30469-0.10156 0.40234-0.10156 0.50391-0.20312 0.91016-0.40234 1.4141-0.20312 0.40234-0.30469 0.80859-0.20312 1.3125 0.20312 0.80859 0.20312 1.7188 0.20312 2.4258 0 0.10156 0 0.40234 0.30469 0.50391v0.10547c-0.30469 0.50391-0.30469 0.91016 0 1.5156 0.10156 0.10156 0.10156 0.30469 0.10156 0.40234 0 0.60547 0.10156 1.1094 0.20312 1.6172v0.10156c0.10156 0.40234 0.20312 0.80859 0.20312 1.2109v0.70703 0.80859c0.10156 0.80859 0.30469 1.7188 0.40234 2.5234v0.10156c0.10156 0.60547 0.30469 1.1094 0.60547 1.4141l0.10156 0.10156c0.20312 0.20312 0.30469 0.30469 0.20312 0.50391v0.20312c0 0.10156 0 0.10156 0.10156 0.20312 0 0.20312 0.10156 0.30469 0.10156 0.50391 0.10156 1.0117 0.50391 1.918 1.2109 2.5234 0.30469 0.30469 0.40234 0.60547 0.50391 1.0117 0.10156 0.40234 0.10156 0.91016 0.30469 1.3125 0.30469 0.60547 0.40234 1.2109 0.40234 1.8164 0 0.91016 0.10156 1.7188 0.50391 2.5234 0.40234 0.80859 0.80859 1.6172 1.2109 2.5234 0.10156 0.20312 0.30469 0.40234 0.50391 0.60547 0.20312 0.10156 0.30469 0.30469 0.30469 0.60547 0.10156 0.40234 0.20312 0.60547 0.30469 0.91016 0.30469 0.50391 0.50391 1.0117 0.70703 1.5156 0.10156 0.30469 0.20312 0.50391 0.30469 0.80859 0.10156 0.20312 0.10156 0.30469 0.20312 0.50391 0.10156 0.20313 0.10156 0.50391 0.20312 0.70703 0 0.10156 0.10156 0.30469 0.10156 0.50391 0 0.20312 0 0.30469 0.10156 0.50391 0.10156 0.30469 0.10156 0.50391 0.20312 0.80859 0.10156 0.20312 0.10156 0.40234 0.10156 0.60547 0.10156 0.30469 0.10156 0.50391 0.20312 0.80859 0.10156 0.50391 0.20312 1.1094 0.40234 1.6172 0.30469 1.0117 0.80859 1.7188 1.6172 2.0195 0.50391 0.20312 0.91016 0.40234 1.4141 0.70703 0.20312 0.10156 0.50391 0.20313 0.80859 0.20313 0.10156 0 0.20312 0 0.40234-0.10156 0.50391-0.20312 1.0117-0.40234 1.5156-0.91016 0.20312-0.20312 0.20312-0.50391 0.10156-0.70703v-0.10156c0-0.20312-0.10156-0.40234-0.10156-0.60547 0-0.30469 0.10156-0.50391 0.20312-0.80859v-0.10156c0.10156-0.30469 0.30469-0.40234 0.60547-0.40234 0.10938 0.019532 0.23047 0.03125 0.34375 0.03125 0.48438 0 0.96094-0.15234 1.375-0.23047 0.40234-0.10156 0.60547-0.30469 0.50391-0.80859-0.10156-0.40234 0-0.70703 0.30469-0.91016 0.40234-0.50391 0.80859-1.0117 1.0117-1.6172 0-0.10156 0.10156-0.20312 0.30469-0.20312 0.30469 0 0.60547 0 0.91016 0.10156 0.10156 0 0.30469 0 0.30469-0.10156 0 0 0.10156-0.10156 0.10156-0.20312l-0.015626-0.089844c0-0.30469 0.10156-0.50391 0-0.80859-0.10156-0.60547-0.10156-1.1094-0.10156-1.6172 0.10156-0.50391 0.10156-1.1094-0.10156-1.6172-0.20313-0.40234-0.10156-0.80859 0.20312-1.3125 0.40234-0.60547 0.70703-1.2109 1.0117-1.7188l0.10156-0.20313c0.20312-0.40234 0.30469-0.80859 0.20312-1.2109 0-0.10156 0-0.30469 0.10156-0.50391 0.20312-0.40234 0.30469-0.80859 0.20312-1.2109-0.10156-0.20312-0.10156-0.40234-0.20312-0.70703-0.10156-0.30469-0.10156-0.50391 0-0.70703 0.20312-0.40234 0.20312-0.80859-0.10156-1.1094-0.20312-0.20312-0.20312-0.40234-0.10156-0.70703 0.20312-0.60547 0.20312-1.2109-0.10156-1.918-0.10156-0.30469-0.20312-0.50391-0.10156-0.70703 0.20312-0.40234 0.20312-0.70703 0.20312-1.2109 0-0.20312 0-0.30469 0.20312-0.40234h0.10156c0.10156 0 0.10156 0 0.20312-0.10156 0.10156 0 0.20312-0.10156 0.20312-0.10156 0.20312-0.10156 0.30469-0.20312 0.50391-0.20312h0.10156c0.10156 0.10156 0.10156 0.10156 0.20313 0.20312 0.10156 0.10156 0.20312 0.20312 0.30469 0.20312 0.20312 0.10156 0.40234 0.10156 0.60547 0.10156 0.10156 0 0.20312-0.10156 0.30469-0.20312 0.10156-0.20312 0.10156-0.40234 0.20312-0.50391 0.10156-0.20312 0.10156-0.40234 0.20312-0.60547 0-0.10156 0.10156-0.20312 0.10156-0.20312 0.20312-0.10156 0.30469-0.20312 0.30469-0.40234v-0.20312h0.20312c0.10156 0 0.10156 0 0.20312 0.10156 0.10156 0 0.20312 0.10156 0.30469 0.10156 0 0 0.30469 0 0.40234-0.10156 0.10156-0.20312 0.30469-0.20312 0.50391-0.20312h0.30469 0.30469c0.50391 0 0.91016-0.20313 1.1094-0.60547 0.20312-0.50391 0.30469-1.0117 0.10156-1.5156-0.10156-0.10156 0-0.20312 0.10156-0.30469l0.10156-0.10156c0.10156-0.10156 0.20312-0.10156 0.30469-0.20312 0.20312-0.20312 0.50391-0.40234 0.91016-0.50391 0.80859-0.20312 1.3125-0.60547 1.6172-1.3125 0.30469-0.60547 0.70703-1.0117 1.4141-1.2109h0.20312c0.40234-0.20312 0.80859-0.40234 1.1094-0.80859 0.10156-0.10156 0.20312-0.20312 0.30469-0.30469 0.10156-0.10156 0.20312-0.20312 0.30469-0.40234 0-0.10156 0.10156-0.10156 0.10156-0.20312 0.20312-0.20312 0.40234-0.50391 0.50391-0.80859 0.20312-0.60547 0.60547-1.1094 1.0117-1.5156 0.50391-0.50391 1.1094-1.0117 1.8164-1.4141 0.10156-0.10156 0.30469-0.10156 0.50391-0.20312 0.40234-0.10156 0.80859-0.20312 1.3125-0.30469l0.40234-0.10156c0.40234-0.10156 0.60547-0.30469 0.80859-0.60547 0.10156-0.20312 0.20313-0.30469 0.30469-0.40234 0.20312-0.20312 0.40234-0.40234 0.50391-0.70703 0-0.20312 0.10156-0.40234 0.40234-0.50391 0.10156-0.10156 0.20312-0.10156 0.30469-0.20312 0.20312-0.20312 0.40234-0.40234 0.40234-0.60547s0-0.50391-0.20312-0.70703c-0.10156-0.10156-0.10156-0.20312-0.20312-0.30469l-0.10156-0.10156c-0.10156-0.10156-0.10156-0.20312-0.10156-0.40234 0-0.10156 0.10156-0.20312 0.20312-0.30469 0.10156 0 0.10156-0.10156 0.20312-0.10156 0.30469-0.20312 0.50391-0.40234 0.60547-0.70703 0-0.10156 0.10156-0.20312 0.30469-0.20312 0.50391-0.10156 0.91016-0.10156 1.4141-0.20312h0.40234c0.10156 0.20312 0.30469 0.40234 0.60547 0.40234 0.30469 0 0.60547-0.20312 0.60547-0.50391h0.30469c0.10156 0.10156 0.20312 0.20312 0.20312 0.20312h0.082031c0.03125-0.03125 0.070312-0.039062 0.10156-0.039062 0.070313 0 0.16016 0.039062 0.30469 0.039062h0.10156s0.20313 0 0.30469-0.10156c0.050781-0.050781 0.082031-0.070313 0.10156-0.070313 0.019532 0 0.050782 0.019532 0.10156 0.070313h0.10156c0.082031 0.03125 0.15234 0.039062 0.22266 0.039062 0.18359 0 0.3125-0.089843 0.38281-0.24219 0.10156-0.20312 0.10156-0.40234 0-0.70703-0.20312-0.40234-0.20312-0.40234 0.10156-0.70703 0.10156-0.10156 0.20312-0.30469 0.20312-0.50391 0-0.10156-0.10156-0.20312-0.20312-0.30469-0.30469-0.20313-0.30469-0.40234-0.30469-0.91016 0-0.30469-0.10156-0.70703-0.30469-1.2109-0.10156-0.20312-0.20312-0.40234-0.10156-0.60547 0.10156-0.20312 0.10156-0.40234 0-0.50391-0.10156-0.10156-0.20312-0.20312-0.50391-0.30469h-0.10156c0.20313-0.40234 0.10156-0.60547-0.30469-0.91016l-0.10156-0.10156c-0.10156-0.20312 0-0.30469 0.10156-0.50391 0.40234-0.30469 0.30469-0.50391 0.10156-0.80859 0-0.30469 0-0.50391-0.20313-0.80859-0.20312-0.30469-0.50391-0.40234-0.91016-0.50391-0.10156 0-0.20312-0.10156-0.30469-0.20312-0.20312-0.10156-0.30469-0.30469-0.40234-0.40234l-0.20312-0.20312c0-0.10156 0.10156-0.20312 0.10156-0.20312 0.30469-0.10156 0.50391-0.20312 0.70703-0.40234 0.20312-0.20312 0.30469-0.30469 0.30469-0.60547v-0.10156h0.20312c0.30469 0 0.60547 0 0.80859-0.10156 0.20312 0 0.40234-0.20312 0.40234-0.40234 0.10156-0.20312 0-0.40234-0.10156-0.50391-0.10156-0.10156-0.20312-0.10156-0.30469-0.20312 0-0.40234-0.20312-0.50391-0.60547-0.50391h-0.40234c-0.20312-0.40234-0.50391-0.50391-0.80859-0.60547-0.10156 0-0.20313-0.10156-0.30469-0.10156 0.20312-0.10156 0.30469-0.40234 0.20312-0.70703l0.10156-0.10156c0.30469-0.20312 0.40234-0.40234 0.50391-0.70703v-0.10156h0.10156s0.10156 0 0.10156 0.10156c0.10156 0.10156 0.20312 0.10156 0.30469 0.10156h0.10156c0.10156 0.10156 0.30469 0.20312 0.50391 0.20312 0.40234 0 0.40234-0.10156 0.50391-0.40234 0 0.10156 0.10156 0.10156 0.10156 0.20313 0.10156 0.20312 0.20312 0.50391 0.40234 0.60547 0.30469 0.10156 0.60547 0.20312 0.91016 0.30469h0.40234c0.10156-0.10156 0.10156-0.30469 0.10156-0.40234v-0.10156h0.10156v0.10156c0 0.10156 0.10156 0.30469 0.10156 0.40234 0.10156 0.20312 0.10156 0.30469 0 0.40234-0.30469 0.40234-0.30469 1.0117-0.10156 1.4141 0.20313 0.50391 0.60547 0.80859 1.1094 0.91016 0.70703 0.10156 1.3125 0.20312 1.918 0.20312 0.60547 0 1.2109-0.10156 1.7188-0.10156 0.20312 0 0.30469 0 0.50391-0.10156l0.10547-0.003906c0.27344 0 0.53516-0.039062 0.80859-0.039062 0.13281 0 0.27344 0.011718 0.40234 0.039062 0.20312 0.050781 0.40234 0.070312 0.59766 0.070312 0.19141 0 0.36328-0.019531 0.51562-0.070312h0.20312c-0.40234 0.30469-0.50391 0.70703-0.60547 1.0117 0 0.10156 0 0.10156-0.10156 0.20312v0.20312c-0.10156 0.50391-0.50391 0.91016-1.1094 1.0117-0.70703 0.20312-1.5156 0.60547-1.6172 1.7188v0.10156 0.30469c0 0.40234-0.10156 0.80859 0.10156 1.1094 0.30469 0.50391 0.70703 0.91016 1.1094 1.2109 0.16016 0.12109 0.35547 0.17188 0.54688 0.17188 0.30469 0 0.625-0.13281 0.86719-0.375 0.20312-0.20312 0.20312-0.50391 0-0.70703 0 0 0-0.10156-0.10156-0.10156 0.20312-0.30469 0.40234-0.70703 0.40234-1.1094h0.40234v0.10156c0 0.10156 0.10156 0.30469 0.10156 0.40234 0.10156 0.80859 0.20312 1.4141 0.60547 2.0195 0.10156 0.10156 0.10156 0.30469 0.10156 0.40234v0.20312 0.30469c0 0.20312 0.10156 0.50391 0.10156 0.80859 0 0.10156 0.20313 0.30469 0.30469 0.40234 0.20312 0.10156 0.50391 0.20312 0.70703 0.30469 0.10938 0.039063 0.21094 0.0625 0.29297 0.0625 0.15234 0 0.28125-0.070313 0.41406-0.26172 0.40234-0.60547 0.80859-1.3125 0.50391-2.3242-0.10156-0.40234-0.10156-0.70703 0.10156-1.1094 0.10156-0.10156 0.10156-0.20312 0.20312-0.30469 0.20312-0.30469 0.30469-0.70703 0.20312-1.1094 0-0.30469-0.10156-0.60547-0.10156-0.91016v-0.20312h0.10156c0.10156-0.10156 0.20312-0.10156 0.20312-0.20312 0-0.10156 0-0.10156 0.10156-0.10156h0.20312c0.10156 0 0.20312 0.10156 0.40234 0.10156 0.20312 0.10156 0.30469 0.10156 0.50391 0.20312 0.089844 0.019531 0.18359 0.039062 0.27344 0.039062 0.27344 0 0.48438-0.13281 0.63672-0.44531 0.10156-0.20312 0.20312-0.40234 0.20312-0.60547 0.10156-0.40234 0.20312-0.70703 0.30469-1.1094 0.20313-1.0117 0.50391-2.0195 0.60547-3.0312v-0.10156c0.60547-0.30469 0.91016-0.91016 1.2109-1.5156 0.30469-0.70703 0.40234-1.3125 0.10156-1.918v-0.10156c0-0.20312 0-0.30469 0.10156-0.40234 0.10156-0.10156 0.20312-0.20312 0.30469-0.30469 0.10156-0.10156 0.10156-0.20312 0.20312-0.20312l0.10156-0.10156c0.10156-0.10156 0.20312-0.20313 0.40234-0.30469 0.40234-0.20312 0.70703-0.40234 0.91016-0.91016 0.10156-0.40234 0.40234-0.50391 0.80859-0.60547 0.50391 0 0.80859-0.10156 1.1094-0.40234 0.10156-0.10156 0.20312-0.10156 0.20312-0.10156 0.10156 0 0.10156 0.10156 0.20313 0.20312 0 0 0.10156 0.10156 0.10156 0.20312v0.10156c0.10156 0.20312 0.20312 0.30469 0.40234 0.40234 0.0625 0.03125 0.10938 0.039063 0.16016 0.039063 0.10938 0 0.20312-0.070313 0.34375-0.14063 0.10156-0.10156 0.20312-0.10156 0.20312-0.30469 0-0.10156 0-0.20312-0.10156-0.30469-0.10156-0.10156-0.20312-0.20313-0.30469-0.30469l-0.10156-0.10156c-0.50391-0.60547-0.50391-0.70703 0.10156-1.2109 0.12109 0.011719 0.23047 0.019531 0.33203 0.019531 0.625 0 0.80859-0.25391 0.98047-0.42578 0.20312-0.30469 0.20312-0.50391 0.10156-0.70703-0.10156-0.20312-0.20313-0.40234-0.50391-0.60547-0.30469-0.20312-0.50391-0.30469-0.80859-0.40234-0.10156 0-0.20313-0.10156-0.30469-0.10156h-0.30469c-0.10156 0-0.10156 0-0.20312-0.10156-0.15234-0.15234-0.33203-0.23047-0.50391-0.23047s-0.35547 0.082032-0.50391 0.23047c0-0.10156 0.10156-0.20312 0.20312-0.20312 0.30469-0.10156 0.40234-0.30469 0.30469-0.60547 0-0.20313-0.10156-0.40234-0.20313-0.60547-0.12109-0.24219-0.28125-0.375-0.50391-0.375-0.14062 0-0.3125 0.0625-0.50391 0.17188 0-0.10156 0.10156-0.10156 0.20312-0.20312 0.40234-0.10156 0.30469-0.40234 0.20312-0.50391-0.10156-0.40234-0.40234-0.60547-0.60547-0.70703-0.12109-0.039062-0.25391-0.070312-0.375-0.070312-0.18359 0-0.35547 0.050781-0.53516 0.17188-0.30469 0.20312-0.70703 0.40234-1.0117 0.60547l-0.10156 0.10156c-0.10156 0.10156-0.20312 0.20312-0.30469 0.30469-0.0625 0.12109-0.082031 0.17188-0.15234 0.17188-0.050781 0-0.12109-0.019532-0.25391-0.070313-0.40234-0.20312-0.80859-0.30469-1.2109-0.30469-0.10156 0-0.30469 0-0.40234-0.10156-0.20312-0.089844-0.38281-0.12109-0.54688-0.12109-0.38281 0-0.625 0.21094-0.76953 0.42578-0.20312 0.20313-0.30469 0.40234-0.50391 0.70703-0.20312 0.40234-0.60547 0.60547-1.0117 0.70703-0.40234 0.10156-0.80859 0.20312-1.1094 0.40234-0.20312 0.10156-0.40234 0.30469-0.50391 0.50391-0.20312 0.40234-0.40234 0.70703-0.80859 0.91016-0.40234 0.20312-0.60547 0.50391-0.40234 0.91016l-0.007813 0.10156c-0.10156 0.30469-0.30469 0.40234-0.60547 0.40234-0.70703 0-1.2109 0.20312-1.6172 0.50391-0.30469 0.10547-0.40234 0.10547-0.60547 0.10547-0.30469 0-0.40234 0.20312-0.50391 0.40234-0.10156 0.30469-0.10156 0.70703 0.10156 0.91016 0.10156 0.20312 0.40234 0.40234 0.80859 0.40234h0.40234 0.10156v0.20313c-0.10156 0.30469-0.10156 0.60547 0.10156 0.91016-0.20312 0.10156-0.30469 0.10156-0.50391 0.20312-0.20312 0.10156-0.40234 0.10156-0.60547 0.10156s-0.40234-0.039062-0.60547-0.039062c-0.10156 0-0.20312 0.011719-0.30469 0.039062-0.36328 0.14062-0.72656 0.19141-1.0898 0.19141-0.44531 0-0.89062-0.082032-1.332-0.19141-0.14062-0.0625-0.27344-0.082031-0.40234-0.082031-0.32422 0-0.59766 0.16016-0.80859 0.38281-0.15234 0.22266-0.41406 0.34375-0.70703 0.34375-0.10156 0-0.20312-0.011718-0.30469-0.039062-0.60547-0.10156-1.2109-0.30469-1.918-0.60547-0.40234-0.10156-0.60547-0.40234-0.60547-0.80859 0-0.30469 0.10156-0.60547 0.10156-0.91016 0.10156-0.60547 0.10156-1.1094 0-1.6172-0.10156-0.40234-0.40234-0.60547-0.70703-0.70703-0.0625-0.019531-0.10938-0.03125-0.17188-0.03125-0.24219 0-0.49609 0.16016-0.73828 0.33203-0.40234 0.40234-0.70703 0.70703-1.1094 0.91016-0.30469 0.20312-0.50391 0.50391-0.30469 1.1094 0.10156 0.20312 0.20312 0.30469 0.20312 0.40234l0.10156 0.20312c0.10156 0.10156 0.10156 0.30469 0 0.40234-0.40234 0.50391-0.30469 0.80859 0 1.3125 0.10156 0.10156 0.10156 0.30469 0.10156 0.40234 0 0.30469-0.10156 0.50391-0.30469 0.60547s-0.40234 0.10156-0.70703 0.10156h-0.30469c-0.12109 0-0.26172-0.019531-0.40234-0.019531-0.21094 0-0.42578 0.039063-0.60547 0.22266-0.25391-0.3125-0.46484-0.47656-0.73828-0.47656-0.16016 0-0.34375 0.0625-0.57422 0.17188-0.21094 0.070312-0.375 0.14062-0.52344 0.14062-0.0625 0-0.12109-0.011719-0.18359-0.039063-0.10156 0-0.30469-0.10156-0.40234-0.10156-0.10156 0-0.30469-0.10156-0.40234-0.10156-0.20312-0.050782-0.40234-0.10156-0.60547-0.10156-0.20312 0-0.40234 0.050781-0.60547 0.20312h-0.10156l-0.10156-0.10156s0-0.10156-0.10156-0.10156v-0.10156c-0.10156-0.40234-0.30469-0.60547-0.60547-0.70703-0.082032-0.03125-0.15234-0.039062-0.23047-0.039062-0.20312 0-0.38281 0.089843-0.67578 0.24219-0.082032 0.039063-0.17188 0.070313-0.25391 0.070313-0.12109 0-0.23047-0.050781-0.35547-0.17188-0.20312-0.20312-0.50391-0.50391-0.91016-0.50391v-0.10156c0.10156-0.40234 0-0.70703-0.20312-0.91016s-0.50391-0.40234-0.80859-0.40234h-0.30469-0.20312c-0.10156 0-0.30469 0-0.40234-0.10156-0.12109-0.039062-0.27344-0.070312-0.41406-0.070312-0.20312 0-0.41406 0.050781-0.59766 0.17188-0.050781 0.050781-0.12109 0.070313-0.21094 0.070313s-0.19141-0.03125-0.29297-0.070313c-0.10156 0-0.10156 0-0.20312-0.10156-0.10156-0.10156-0.30469-0.10156-0.40234-0.20312-0.10156-0.050782-0.20313-0.070313-0.29297-0.070313-0.089844 0-0.16016 0.019531-0.21094 0.070313-0.10156 0.10156-0.20312 0.20312-0.20312 0.30469-0.10156 0-0.10156-0.10156-0.20312-0.10156l-0.10156-0.10156c-0.20312-0.10156-0.30469-0.10156-0.50391-0.20312-0.20312 0-0.30469-0.10156-0.40234-0.30469 0.20312 0 0-0.20313-0.40234-0.20313h-0.40234c-0.20312 0-0.40234 0-0.50391-0.20312-0.10156-0.10156-0.30469-0.20313-0.40234-0.30469-0.15234-0.10156-0.30469-0.15234-0.42578-0.15234-0.13672 0.015625-0.24609 0.066406-0.29688 0.16797-0.050781 0.050781-0.10156 0.070313-0.16016 0.070313-0.0625 0-0.14062-0.03125-0.24219-0.070313-0.10156-0.10156-0.30469-0.20312-0.40234-0.30469-0.20313-0.10156-0.30469-0.30469-0.50391-0.40234-0.10156-0.10156-0.30469-0.20312-0.50391-0.20312-0.10156 0-0.20312-0.10156-0.20312-0.20312-0.10156-0.30469-0.20312-0.50391-0.50391-0.60547l-0.40234-0.20312c-0.30469-0.10156-0.50391-0.20312-0.80859-0.30469-0.10156-0.10156-0.30469-0.10156-0.40234-0.20312-0.30469-0.30469-0.50391-0.60547-0.91016-0.70703 0-0.20312 0.20312-0.30469 0.30469-0.50391 0.30469-0.30469 0.40234-0.60547 0.30469-1.0117-0.10156-0.20312 0-0.30469 0.10156-0.30469 0.10156-0.10156 0.20312-0.20312 0.20312-0.40234 0-0.40234 0.20312-0.70703 0.60547-1.0117 0.10156-0.10156 0.10156-0.10156 0.20312-0.20312 0.10156-0.10156 0.20313-0.20312 0.40234-0.30469l0.10156-0.10156c0.10156 0 0.10156-0.10156 0.20312-0.10156 0.20312-0.10156 0.30469-0.30469 0.20312-0.50391 0-0.20313-0.10156-0.30469-0.30469-0.40234-0.10156-0.10156-0.20312-0.20312-0.40234-0.30469-0.10156-0.10156-0.10156-0.10156-0.20313-0.20312h-0.10156c-0.10156-0.10156-0.20312-0.20312-0.30469-0.20312-0.20312-0.10156-0.50391-0.20312-0.70703-0.20312l-0.20312-0.10156v-0.10156c0-0.50391-0.20312-0.70703-0.70703-0.70703h-0.10156c-0.17187-0.33203-0.40234-0.53516-0.76953-0.53516-0.070312 0-0.15234 0.011719-0.24219 0.03125-0.20312 0-0.30469 0-0.50391-0.20312l-0.007813-0.085938c-0.10156-0.10156-0.20312-0.30469-0.40234-0.40234-0.10156-0.10156-0.20312-0.20312-0.20312-0.30469-0.17188-0.42578-0.40234-0.625-0.77734-0.625-0.070312 0-0.15234 0.011719-0.23047 0.03125-0.10156 0-0.20312 0.10156-0.30469 0.10156 0.10156-0.10156 0.20312-0.40234-0.10156-0.70703-0.10156-0.10156-0.10156-0.20312 0-0.30469 0.20312-0.50391 0.10156-0.80859-0.30469-1.1094-0.20312-0.20312-0.30469-0.40234-0.30469-0.70703 0-0.10156 0.10156-0.40234-0.10156-0.50391 0.10156-0.10156 0.10156-0.10156 0.20312-0.20312l0.10156 0.10156c0.10156 0.10156 0.10156 0.20312 0.20312 0.30469 0.18359 0.23047 0.39453 0.33203 0.61719 0.33203 0.16016 0 0.32422-0.050781 0.49609-0.13281l0.10156-0.10156c0.10156-0.10156 0.20313-0.10156 0.30469-0.20313 0.10156 0 0.10156-0.10156 0.20312-0.10156l0.10156-0.10156c0.30469 0 0.50391-0.20313 0.50391-0.40234 0.10156-0.20312 0-0.40234-0.10156-0.60547-0.20312-0.20312-0.20312-0.30469-0.20312-0.60547v-0.10156-0.10156c0-0.30469 0-0.50391-0.20312-0.70703-0.10156-0.10156-0.30469-0.20312-0.60547-0.20312-0.10156 0-0.10156 0-0.10156-0.10156 0-0.10156-0.10156-0.20312-0.20312-0.40234l-0.10156-0.10156c0-0.20312-0.10156-0.50391-0.20312-0.60547 0 0 0-0.10156-0.10156-0.10156 0.20312-0.20312 0.30469-0.40234 0.30469-0.70703 0.20313-0.10156 0.30469-0.10156 0.50391-0.10156 0.70703 0 1.0117-0.20312 1.2109-0.91016 0.10156-0.40234 0.30469-0.60547 0.60547-0.80859 0.10156-0.10156 0.20312-0.10156 0.20312-0.20312 0.10156-0.10156 0.20312-0.10156 0.30469-0.20312 0.60547-0.30469 0.91016-0.80859 0.91016-1.5156v-0.10938-0.20312c0-0.10156 0.10156-0.30469 0.10156-0.40234 0.20312-0.30469 0.30469-0.60547 0.10156-0.91016 0.30078-0.19922 0.097656-0.40234-0.30469-0.40234-0.20312 0-0.50391-0.10156-0.70703-0.20312-0.40234-0.20313-0.70703-0.60547-1.0117-1.0117-0.22266-0.22266-0.45312-0.34375-0.72656-0.34375-0.089844 0-0.18359 0.011719-0.28125 0.039062-0.20312 0-0.30469 0.10156-0.50391 0.20312-0.10156 0-0.20312 0.10156-0.30469 0.10156h-0.10156c-0.10156 0-0.30469 0.10156-0.40234 0.10156-0.60547 0.10156-1.1094 0.30469-1.5156 0.60547-0.30469 0.22266-0.60547 0.34375-0.91016 0.34375-0.10156 0-0.20313-0.011719-0.30469-0.039062h-0.30469-0.20312l-0.30469-0.10156c-0.50391-0.10156-1.0117-0.20312-1.5156-0.40234-0.20312-0.10156-0.40234-0.20312-0.50391-0.40234-0.15234-0.3125-0.3125-0.44531-0.55469-0.44531-0.070312 0-0.16016 0.011719-0.25391 0.039063h-0.20312c-0.20312 0-0.40234 0-0.50391-0.10156-0.10156-0.10156-0.10156-0.30469-0.10156-0.50391 0-0.20312 0.10156-0.50391 0.20312-0.80859 0.10156-0.30469 0.10156-0.60547 0-0.80859-0.20312-0.50391-0.50391-0.80859-1.0117-1.0117-0.10156 0-0.10156-0.10156-0.20313-0.10156-0.49609-0.19922-0.90234-0.30078-1.2031-0.70312-0.074219-0.15234-0.25391-0.24219-0.42578-0.24219z"/>
<text x="0.0" y="117.5" font-size="5.0" font-weight="bold" font-family="Arbeit Regular, Helvetica, Arial-Unicode, Arial, Sans-serif" fill="#000000">Created by Marcus DeClarke</text><text x="0.0" y="122.5" font-size="5.0" font-weight="bold" font-family="Arbeit Regular, Helvetica, Arial-Unicode, Arial, Sans-serif" fill="#000000">from Noun Project</text></svg>