<svg xmlns="http://www.w3.org/2000/svg" xmlns:xlink="http://www.w3.org/1999/xlink" version="1.1" x="0px" y="0px" viewBox="0 0 100 125" enable-background="new 0 0 100 100" xml:space="preserve"><path d="M61.633,57.06v6.305c0,0.855,0.598,1.453,1.453,1.453h6.306c0.855,0,1.453-0.597,1.453-1.453V57.06  c0-0.854-0.597-1.452-1.453-1.452h-6.306C62.231,55.608,61.633,56.205,61.633,57.06z M63.566,57.541h5.346v5.344h-5.346V57.541z"/><path d="M75.067,64.817h6.305c0.855,0,1.452-0.597,1.452-1.453V57.06c0-0.854-0.597-1.452-1.452-1.452h-6.305  c-0.855,0-1.452,0.597-1.452,1.452v6.305C73.615,64.22,74.212,64.817,75.067,64.817z M75.548,57.541h5.344v5.344h-5.344V57.541z"/><path d="M69.392,67.589h-6.306c-0.855,0-1.453,0.597-1.453,1.451v6.305c0,0.855,0.598,1.453,1.453,1.453h6.306  c0.855,0,1.453-0.598,1.453-1.453v-6.305C70.844,68.186,70.247,67.589,69.392,67.589z M68.912,74.866h-5.346v-5.344h5.346V74.866z"/><path d="M75.067,76.799h6.305c0.855,0,1.452-0.598,1.452-1.453v-6.305c0-0.854-0.597-1.451-1.452-1.451h-6.305  c-0.855,0-1.452,0.597-1.452,1.451v6.305C73.615,76.201,74.212,76.799,75.067,76.799z M75.548,69.522h5.344v5.344h-5.344V69.522z"/><path d="M36.911,55.608h-6.305c-0.855,0-1.453,0.597-1.453,1.452v6.305c0,0.855,0.598,1.453,1.453,1.453h6.305  c0.855,0,1.452-0.597,1.452-1.453V57.06C38.363,56.205,37.766,55.608,36.911,55.608z M36.43,62.885h-5.344v-5.344h5.344V62.885z"/><path d="M24.929,55.608h-6.305c-0.855,0-1.452,0.597-1.452,1.452v6.305c0,0.855,0.597,1.453,1.452,1.453h6.305  c0.855,0,1.454-0.597,1.454-1.453V57.06C26.382,56.205,25.784,55.608,24.929,55.608z M24.449,62.885h-5.345v-5.344h5.345V62.885z"/><path d="M36.911,67.589h-6.305c-0.855,0-1.453,0.597-1.453,1.451v6.305c0,0.855,0.598,1.453,1.453,1.453h6.305  c0.855,0,1.452-0.598,1.452-1.453v-6.305C38.363,68.186,37.766,67.589,36.911,67.589z M36.43,74.866h-5.344v-5.344h5.344V74.866z"/><path d="M24.929,67.589h-6.305c-0.855,0-1.452,0.597-1.452,1.451v6.305c0,0.855,0.597,1.453,1.452,1.453h6.305  c0.855,0,1.454-0.598,1.454-1.453v-6.305C26.382,68.186,25.784,67.589,24.929,67.589z M24.449,74.866h-5.345v-5.344h5.345V74.866z"/><path d="M50,40.469c-4.529,0-8.214,3.685-8.214,8.214s3.685,8.214,8.214,8.214s8.214-3.685,8.214-8.214S54.529,40.469,50,40.469z   M50,54.55c-3.235,0-5.867-2.632-5.867-5.867s2.632-5.866,5.867-5.866s5.867,2.631,5.867,5.866S53.235,54.55,50,54.55z"/><path d="M50.429,48.682v-3.513c0-0.519-0.421-0.938-0.939-0.938c-0.518,0-0.938,0.42-0.938,0.938v3.982  c0,0.296,0.14,0.576,0.377,0.753l2.669,1.992c0.169,0.125,0.366,0.186,0.561,0.186c0.287,0,0.569-0.131,0.753-0.377  c0.31-0.417,0.225-1.004-0.191-1.314L50.429,48.682z"/><path d="M93.487,82.357h-3.875V49.986h3.234c1.27,0,2.09-0.821,2.09-2.09v-1.408c0-0.876-0.302-1.559-0.949-2.145l-8.083-7.332  c-0.941-0.856-1.929-1.238-3.206-1.238h-25.28l-6.381-6.544c-0.032-0.032-0.068-0.057-0.103-0.086v-5.201  c0.371-0.116,0.783-0.176,1.27-0.176c0.917,0,1.955,0.202,3.053,0.416c1.298,0.251,2.64,0.513,4.056,0.513  c1.115,0,2.117-0.164,3.064-0.5L63,23.974v-9.264l-1.248,0.443c-0.744,0.264-1.542,0.393-2.44,0.393  c-1.235,0-2.488-0.244-3.699-0.479c-1.189-0.231-2.313-0.45-3.41-0.45c-1.015,0-1.875,0.193-2.632,0.588l-0.502,0.262v1.077h-0.005  v12.599c-0.034,0.029-0.071,0.054-0.103,0.086l-6.38,6.542L17.303,35.77c-1.276,0-2.265,0.382-3.204,1.236l-8.085,7.331  c-0.648,0.588-0.951,1.27-0.951,2.146v1.409c0,1.27,0.821,2.089,2.091,2.089l3.237,0l-0.003,32.376H6.513  C5.678,82.357,5,83.035,5,83.87c0,0.835,0.678,1.513,1.513,1.513h86.975c0.835,0,1.513-0.678,1.513-1.513  C95,83.035,94.322,82.357,93.487,82.357z M50.94,16.657c1.067-0.333,2.64-0.081,4.317,0.246c1.298,0.252,2.64,0.513,4.056,0.513  c0.639,0,1.241-0.054,1.817-0.164v5.366c-1.635,0.399-3.667,0.086-5.516-0.272c-1.189-0.231-2.313-0.449-3.41-0.449  c-0.45,0-0.87,0.039-1.265,0.115V16.657z M82.698,38.672c0.561,0,0.842,0.108,1.256,0.485l8.083,7.334v0.596H68.451l-8.206-8.415  H82.698z M7.964,47.082l0.001-0.602l8.082-7.328c0.413-0.375,0.694-0.483,1.256-0.483l22.452,0.001l-8.208,8.417L7.964,47.082z   M54.846,82.357h-9.692V70.55c0-2.599,1.993-4.415,4.846-4.415s4.846,1.815,4.846,4.415V82.357z M86.713,82.357H57.745V70.55  c0-4.169-3.33-7.313-7.745-7.313s-7.745,3.144-7.745,7.313v11.808H13.287l0.002-32.375l18.868,0.004c0,0,0,0,0,0  c0.391,0,0.765-0.158,1.038-0.438L50,32.318l16.803,17.231c0.272,0.28,0.647,0.438,1.038,0.438h18.873V82.357z"/><text x="0" y="115" fill="#000000" font-size="5px" font-weight="bold" font-family="'Helvetica Neue', Helvetica, Arial-Unicode, Arial, Sans-serif">Created by David Khai</text><text x="0" y="120" fill="#000000" font-size="5px" font-weight="bold" font-family="'Helvetica Neue', Helvetica, Arial-Unicode, Arial, Sans-serif">from the Noun Project</text></svg>